<mxfile host="app.diagrams.net" modified="2024-05-02T14:16:59.029Z" agent="Mozilla/5.0 (Windows NT 10.0; Win64; x64; rv:125.0) Gecko/20100101 Firefox/125.0" etag="u_rjcPg_xCPz5uTopFNI" version="24.3.1" type="device">
  <diagram name="Página-1" id="2mCqnDsBA6Jq6d4ngYam">
    <mxGraphModel dx="1195" dy="1814" grid="0" gridSize="10" guides="1" tooltips="1" connect="1" arrows="1" fold="1" page="1" pageScale="1" pageWidth="827" pageHeight="1169" math="0" shadow="0">
      <root>
        <mxCell id="0" />
        <mxCell id="1" parent="0" />
        <mxCell id="RxDvv0h4Y8CY9LYR0GJb-1" value="&lt;div&gt;Tabela Cliente&lt;/div&gt;" style="swimlane;fontStyle=0;childLayout=stackLayout;horizontal=1;startSize=26;fillColor=none;horizontalStack=0;resizeParent=1;resizeParentMax=0;resizeLast=0;collapsible=1;marginBottom=0;whiteSpace=wrap;html=1;" parent="1" vertex="1">
          <mxGeometry x="65" y="-1093" width="163" height="182" as="geometry">
            <mxRectangle x="57" y="33" width="114" height="26" as="alternateBounds" />
          </mxGeometry>
        </mxCell>
        <mxCell id="fUoOmMoi_l6fNtsF6b3P-18" value="cadastrado: BooleanField" style="text;strokeColor=none;fillColor=none;align=left;verticalAlign=top;spacingLeft=4;spacingRight=4;overflow=hidden;rotatable=0;points=[[0,0.5],[1,0.5]];portConstraint=eastwest;whiteSpace=wrap;html=1;" vertex="1" parent="RxDvv0h4Y8CY9LYR0GJb-1">
          <mxGeometry y="26" width="163" height="26" as="geometry" />
        </mxCell>
        <mxCell id="RxDvv0h4Y8CY9LYR0GJb-2" value="nome: CharField" style="text;strokeColor=none;fillColor=none;align=left;verticalAlign=top;spacingLeft=4;spacingRight=4;overflow=hidden;rotatable=0;points=[[0,0.5],[1,0.5]];portConstraint=eastwest;whiteSpace=wrap;html=1;" parent="RxDvv0h4Y8CY9LYR0GJb-1" vertex="1">
          <mxGeometry y="52" width="163" height="26" as="geometry" />
        </mxCell>
        <mxCell id="RxDvv0h4Y8CY9LYR0GJb-3" value="endereco: CharField" style="text;strokeColor=none;fillColor=none;align=left;verticalAlign=top;spacingLeft=4;spacingRight=4;overflow=hidden;rotatable=0;points=[[0,0.5],[1,0.5]];portConstraint=eastwest;whiteSpace=wrap;html=1;" parent="RxDvv0h4Y8CY9LYR0GJb-1" vertex="1">
          <mxGeometry y="78" width="163" height="26" as="geometry" />
        </mxCell>
        <mxCell id="RxDvv0h4Y8CY9LYR0GJb-6" value="&lt;div&gt;email: CharField&lt;/div&gt;" style="text;strokeColor=none;fillColor=none;align=left;verticalAlign=top;spacingLeft=4;spacingRight=4;overflow=hidden;rotatable=0;points=[[0,0.5],[1,0.5]];portConstraint=eastwest;whiteSpace=wrap;html=1;" parent="RxDvv0h4Y8CY9LYR0GJb-1" vertex="1">
          <mxGeometry y="104" width="163" height="26" as="geometry" />
        </mxCell>
        <mxCell id="RxDvv0h4Y8CY9LYR0GJb-4" value="telefone: IntegerField" style="text;strokeColor=none;fillColor=none;align=left;verticalAlign=top;spacingLeft=4;spacingRight=4;overflow=hidden;rotatable=0;points=[[0,0.5],[1,0.5]];portConstraint=eastwest;whiteSpace=wrap;html=1;" parent="RxDvv0h4Y8CY9LYR0GJb-1" vertex="1">
          <mxGeometry y="130" width="163" height="26" as="geometry" />
        </mxCell>
        <mxCell id="fUoOmMoi_l6fNtsF6b3P-24" value="senha: CharField" style="text;strokeColor=none;fillColor=none;align=left;verticalAlign=top;spacingLeft=4;spacingRight=4;overflow=hidden;rotatable=0;points=[[0,0.5],[1,0.5]];portConstraint=eastwest;whiteSpace=wrap;html=1;" vertex="1" parent="RxDvv0h4Y8CY9LYR0GJb-1">
          <mxGeometry y="156" width="163" height="26" as="geometry" />
        </mxCell>
        <mxCell id="RxDvv0h4Y8CY9LYR0GJb-14" value="Tabela Produtos" style="swimlane;fontStyle=0;childLayout=stackLayout;horizontal=1;startSize=26;fillColor=none;horizontalStack=0;resizeParent=1;resizeParentMax=0;resizeLast=0;collapsible=1;marginBottom=0;whiteSpace=wrap;html=1;" parent="1" vertex="1">
          <mxGeometry x="65" y="-873" width="164" height="182" as="geometry" />
        </mxCell>
        <mxCell id="RxDvv0h4Y8CY9LYR0GJb-16" value="nome: CharField" style="text;strokeColor=none;fillColor=none;align=left;verticalAlign=top;spacingLeft=4;spacingRight=4;overflow=hidden;rotatable=0;points=[[0,0.5],[1,0.5]];portConstraint=eastwest;whiteSpace=wrap;html=1;" parent="RxDvv0h4Y8CY9LYR0GJb-14" vertex="1">
          <mxGeometry y="26" width="164" height="26" as="geometry" />
        </mxCell>
        <mxCell id="RxDvv0h4Y8CY9LYR0GJb-15" value="&lt;div&gt;descricao: TextField&lt;/div&gt;" style="text;strokeColor=none;fillColor=none;align=left;verticalAlign=top;spacingLeft=4;spacingRight=4;overflow=hidden;rotatable=0;points=[[0,0.5],[1,0.5]];portConstraint=eastwest;whiteSpace=wrap;html=1;" parent="RxDvv0h4Y8CY9LYR0GJb-14" vertex="1">
          <mxGeometry y="52" width="164" height="26" as="geometry" />
        </mxCell>
        <mxCell id="RxDvv0h4Y8CY9LYR0GJb-19" value="categoria: ForeignKey" style="text;strokeColor=none;fillColor=none;align=left;verticalAlign=top;spacingLeft=4;spacingRight=4;overflow=hidden;rotatable=0;points=[[0,0.5],[1,0.5]];portConstraint=eastwest;whiteSpace=wrap;html=1;" parent="RxDvv0h4Y8CY9LYR0GJb-14" vertex="1">
          <mxGeometry y="78" width="164" height="26" as="geometry" />
        </mxCell>
        <mxCell id="RxDvv0h4Y8CY9LYR0GJb-27" value="sub_categoria: ForeignKey" style="text;strokeColor=none;fillColor=none;align=left;verticalAlign=top;spacingLeft=4;spacingRight=4;overflow=hidden;rotatable=0;points=[[0,0.5],[1,0.5]];portConstraint=eastwest;whiteSpace=wrap;html=1;" parent="RxDvv0h4Y8CY9LYR0GJb-14" vertex="1">
          <mxGeometry y="104" width="164" height="26" as="geometry" />
        </mxCell>
        <mxCell id="RxDvv0h4Y8CY9LYR0GJb-17" value="&lt;div&gt;estoque: IntegerField&lt;/div&gt;" style="text;strokeColor=none;fillColor=none;align=left;verticalAlign=top;spacingLeft=4;spacingRight=4;overflow=hidden;rotatable=0;points=[[0,0.5],[1,0.5]];portConstraint=eastwest;whiteSpace=wrap;html=1;" parent="RxDvv0h4Y8CY9LYR0GJb-14" vertex="1">
          <mxGeometry y="130" width="164" height="26" as="geometry" />
        </mxCell>
        <mxCell id="RxDvv0h4Y8CY9LYR0GJb-18" value="preco: FloatField" style="text;strokeColor=none;fillColor=none;align=left;verticalAlign=top;spacingLeft=4;spacingRight=4;overflow=hidden;rotatable=0;points=[[0,0.5],[1,0.5]];portConstraint=eastwest;whiteSpace=wrap;html=1;" parent="RxDvv0h4Y8CY9LYR0GJb-14" vertex="1">
          <mxGeometry y="156" width="164" height="26" as="geometry" />
        </mxCell>
        <mxCell id="RxDvv0h4Y8CY9LYR0GJb-20" value="Tabela Categoria" style="swimlane;fontStyle=0;childLayout=stackLayout;horizontal=1;startSize=26;fillColor=none;horizontalStack=0;resizeParent=1;resizeParentMax=0;resizeLast=0;collapsible=1;marginBottom=0;whiteSpace=wrap;html=1;" parent="1" vertex="1">
          <mxGeometry x="293" y="-808" width="154" height="52" as="geometry" />
        </mxCell>
        <mxCell id="RxDvv0h4Y8CY9LYR0GJb-21" value="nome: CharField" style="text;strokeColor=none;fillColor=none;align=left;verticalAlign=top;spacingLeft=4;spacingRight=4;overflow=hidden;rotatable=0;points=[[0,0.5],[1,0.5]];portConstraint=eastwest;whiteSpace=wrap;html=1;" parent="RxDvv0h4Y8CY9LYR0GJb-20" vertex="1">
          <mxGeometry y="26" width="154" height="26" as="geometry" />
        </mxCell>
        <mxCell id="RxDvv0h4Y8CY9LYR0GJb-24" value="Tabela SubCategoria" style="swimlane;fontStyle=0;childLayout=stackLayout;horizontal=1;startSize=26;fillColor=none;horizontalStack=0;resizeParent=1;resizeParentMax=0;resizeLast=0;collapsible=1;marginBottom=0;whiteSpace=wrap;html=1;" parent="1" vertex="1">
          <mxGeometry x="292" y="-743" width="154" height="52" as="geometry" />
        </mxCell>
        <mxCell id="RxDvv0h4Y8CY9LYR0GJb-25" value="nome: CharField" style="text;strokeColor=none;fillColor=none;align=left;verticalAlign=top;spacingLeft=4;spacingRight=4;overflow=hidden;rotatable=0;points=[[0,0.5],[1,0.5]];portConstraint=eastwest;whiteSpace=wrap;html=1;" parent="RxDvv0h4Y8CY9LYR0GJb-24" vertex="1">
          <mxGeometry y="26" width="154" height="26" as="geometry" />
        </mxCell>
        <mxCell id="fUoOmMoi_l6fNtsF6b3P-10" value="Tabela Comentário" style="swimlane;fontStyle=0;childLayout=stackLayout;horizontal=1;startSize=26;fillColor=none;horizontalStack=0;resizeParent=1;resizeParentMax=0;resizeLast=0;collapsible=1;marginBottom=0;whiteSpace=wrap;html=1;" vertex="1" parent="1">
          <mxGeometry x="293" y="-1067" width="155" height="130" as="geometry" />
        </mxCell>
        <mxCell id="fUoOmMoi_l6fNtsF6b3P-11" value="cliente: ForeignKey" style="text;strokeColor=none;fillColor=none;align=left;verticalAlign=top;spacingLeft=4;spacingRight=4;overflow=hidden;rotatable=0;points=[[0,0.5],[1,0.5]];portConstraint=eastwest;whiteSpace=wrap;html=1;" vertex="1" parent="fUoOmMoi_l6fNtsF6b3P-10">
          <mxGeometry y="26" width="155" height="26" as="geometry" />
        </mxCell>
        <mxCell id="fUoOmMoi_l6fNtsF6b3P-12" value="&lt;div&gt;produto: ForeignKey&lt;/div&gt;" style="text;strokeColor=none;fillColor=none;align=left;verticalAlign=top;spacingLeft=4;spacingRight=4;overflow=hidden;rotatable=0;points=[[0,0.5],[1,0.5]];portConstraint=eastwest;whiteSpace=wrap;html=1;" vertex="1" parent="fUoOmMoi_l6fNtsF6b3P-10">
          <mxGeometry y="52" width="155" height="26" as="geometry" />
        </mxCell>
        <mxCell id="fUoOmMoi_l6fNtsF6b3P-13" value="&lt;div&gt;texto: TextField&lt;/div&gt;" style="text;strokeColor=none;fillColor=none;align=left;verticalAlign=top;spacingLeft=4;spacingRight=4;overflow=hidden;rotatable=0;points=[[0,0.5],[1,0.5]];portConstraint=eastwest;whiteSpace=wrap;html=1;" vertex="1" parent="fUoOmMoi_l6fNtsF6b3P-10">
          <mxGeometry y="78" width="155" height="26" as="geometry" />
        </mxCell>
        <mxCell id="fUoOmMoi_l6fNtsF6b3P-15" value="postagem: DateField" style="text;strokeColor=none;fillColor=none;align=left;verticalAlign=top;spacingLeft=4;spacingRight=4;overflow=hidden;rotatable=0;points=[[0,0.5],[1,0.5]];portConstraint=eastwest;whiteSpace=wrap;html=1;" vertex="1" parent="fUoOmMoi_l6fNtsF6b3P-10">
          <mxGeometry y="104" width="155" height="26" as="geometry" />
        </mxCell>
        <mxCell id="fUoOmMoi_l6fNtsF6b3P-27" value="Tabela Pedido" style="swimlane;fontStyle=0;childLayout=stackLayout;horizontal=1;startSize=26;fillColor=none;horizontalStack=0;resizeParent=1;resizeParentMax=0;resizeLast=0;collapsible=1;marginBottom=0;whiteSpace=wrap;html=1;" vertex="1" parent="1">
          <mxGeometry x="508" y="-1077" width="170" height="130" as="geometry" />
        </mxCell>
        <mxCell id="fUoOmMoi_l6fNtsF6b3P-28" value="cliente: ForeignKey" style="text;strokeColor=none;fillColor=none;align=left;verticalAlign=top;spacingLeft=4;spacingRight=4;overflow=hidden;rotatable=0;points=[[0,0.5],[1,0.5]];portConstraint=eastwest;whiteSpace=wrap;html=1;" vertex="1" parent="fUoOmMoi_l6fNtsF6b3P-27">
          <mxGeometry y="26" width="170" height="26" as="geometry" />
        </mxCell>
        <mxCell id="fUoOmMoi_l6fNtsF6b3P-29" value="&lt;div&gt;produto: ForeignKey&lt;/div&gt;" style="text;strokeColor=none;fillColor=none;align=left;verticalAlign=top;spacingLeft=4;spacingRight=4;overflow=hidden;rotatable=0;points=[[0,0.5],[1,0.5]];portConstraint=eastwest;whiteSpace=wrap;html=1;" vertex="1" parent="fUoOmMoi_l6fNtsF6b3P-27">
          <mxGeometry y="52" width="170" height="26" as="geometry" />
        </mxCell>
        <mxCell id="fUoOmMoi_l6fNtsF6b3P-35" value="quantidade: IntegerField" style="text;strokeColor=none;fillColor=none;align=left;verticalAlign=top;spacingLeft=4;spacingRight=4;overflow=hidden;rotatable=0;points=[[0,0.5],[1,0.5]];portConstraint=eastwest;whiteSpace=wrap;html=1;" vertex="1" parent="fUoOmMoi_l6fNtsF6b3P-27">
          <mxGeometry y="78" width="170" height="26" as="geometry" />
        </mxCell>
        <mxCell id="fUoOmMoi_l6fNtsF6b3P-36" value="data_pedido: DateTimeField" style="text;strokeColor=none;fillColor=none;align=left;verticalAlign=top;spacingLeft=4;spacingRight=4;overflow=hidden;rotatable=0;points=[[0,0.5],[1,0.5]];portConstraint=eastwest;whiteSpace=wrap;html=1;" vertex="1" parent="fUoOmMoi_l6fNtsF6b3P-27">
          <mxGeometry y="104" width="170" height="26" as="geometry" />
        </mxCell>
        <mxCell id="fUoOmMoi_l6fNtsF6b3P-49" style="edgeStyle=orthogonalEdgeStyle;rounded=0;orthogonalLoop=1;jettySize=auto;html=1;exitX=0;exitY=0.5;exitDx=0;exitDy=0;" edge="1" parent="1" source="fUoOmMoi_l6fNtsF6b3P-29" target="RxDvv0h4Y8CY9LYR0GJb-14">
          <mxGeometry relative="1" as="geometry">
            <mxPoint x="274" y="-867" as="targetPoint" />
            <Array as="points">
              <mxPoint x="508" y="-1014" />
              <mxPoint x="476" y="-1014" />
              <mxPoint x="476" y="-861" />
            </Array>
          </mxGeometry>
        </mxCell>
        <mxCell id="fUoOmMoi_l6fNtsF6b3P-51" value="&lt;div&gt;Tabela Usuário&lt;/div&gt;" style="swimlane;fontStyle=0;childLayout=stackLayout;horizontal=1;startSize=26;fillColor=none;horizontalStack=0;resizeParent=1;resizeParentMax=0;resizeLast=0;collapsible=1;marginBottom=0;whiteSpace=wrap;html=1;" vertex="1" parent="1">
          <mxGeometry x="57" y="42" width="163" height="208" as="geometry">
            <mxRectangle x="57" y="33" width="114" height="26" as="alternateBounds" />
          </mxGeometry>
        </mxCell>
        <mxCell id="fUoOmMoi_l6fNtsF6b3P-53" value="nome: CharField" style="text;strokeColor=none;fillColor=none;align=left;verticalAlign=top;spacingLeft=4;spacingRight=4;overflow=hidden;rotatable=0;points=[[0,0.5],[1,0.5]];portConstraint=eastwest;whiteSpace=wrap;html=1;" vertex="1" parent="fUoOmMoi_l6fNtsF6b3P-51">
          <mxGeometry y="26" width="163" height="26" as="geometry" />
        </mxCell>
        <mxCell id="fUoOmMoi_l6fNtsF6b3P-54" value="idade: PositiveIntegerField" style="text;strokeColor=none;fillColor=none;align=left;verticalAlign=top;spacingLeft=4;spacingRight=4;overflow=hidden;rotatable=0;points=[[0,0.5],[1,0.5]];portConstraint=eastwest;whiteSpace=wrap;html=1;" vertex="1" parent="fUoOmMoi_l6fNtsF6b3P-51">
          <mxGeometry y="52" width="163" height="26" as="geometry" />
        </mxCell>
        <mxCell id="fUoOmMoi_l6fNtsF6b3P-55" value="nascimento: DateField" style="text;strokeColor=none;fillColor=none;align=left;verticalAlign=top;spacingLeft=4;spacingRight=4;overflow=hidden;rotatable=0;points=[[0,0.5],[1,0.5]];portConstraint=eastwest;whiteSpace=wrap;html=1;" vertex="1" parent="fUoOmMoi_l6fNtsF6b3P-51">
          <mxGeometry y="78" width="163" height="26" as="geometry" />
        </mxCell>
        <mxCell id="fUoOmMoi_l6fNtsF6b3P-58" value="email: EmailField" style="text;strokeColor=none;fillColor=none;align=left;verticalAlign=top;spacingLeft=4;spacingRight=4;overflow=hidden;rotatable=0;points=[[0,0.5],[1,0.5]];portConstraint=eastwest;whiteSpace=wrap;html=1;" vertex="1" parent="fUoOmMoi_l6fNtsF6b3P-51">
          <mxGeometry y="104" width="163" height="26" as="geometry" />
        </mxCell>
        <mxCell id="fUoOmMoi_l6fNtsF6b3P-56" value="telefone: IntegerField" style="text;strokeColor=none;fillColor=none;align=left;verticalAlign=top;spacingLeft=4;spacingRight=4;overflow=hidden;rotatable=0;points=[[0,0.5],[1,0.5]];portConstraint=eastwest;whiteSpace=wrap;html=1;" vertex="1" parent="fUoOmMoi_l6fNtsF6b3P-51">
          <mxGeometry y="130" width="163" height="26" as="geometry" />
        </mxCell>
        <mxCell id="fUoOmMoi_l6fNtsF6b3P-57" value="senha: CharField" style="text;strokeColor=none;fillColor=none;align=left;verticalAlign=top;spacingLeft=4;spacingRight=4;overflow=hidden;rotatable=0;points=[[0,0.5],[1,0.5]];portConstraint=eastwest;whiteSpace=wrap;html=1;" vertex="1" parent="fUoOmMoi_l6fNtsF6b3P-51">
          <mxGeometry y="156" width="163" height="26" as="geometry" />
        </mxCell>
        <mxCell id="fUoOmMoi_l6fNtsF6b3P-68" value="foto_perfil: ImageField" style="text;strokeColor=none;fillColor=none;align=left;verticalAlign=top;spacingLeft=4;spacingRight=4;overflow=hidden;rotatable=0;points=[[0,0.5],[1,0.5]];portConstraint=eastwest;whiteSpace=wrap;html=1;" vertex="1" parent="fUoOmMoi_l6fNtsF6b3P-51">
          <mxGeometry y="182" width="163" height="26" as="geometry" />
        </mxCell>
        <mxCell id="fUoOmMoi_l6fNtsF6b3P-59" value="&lt;div&gt;Tabela Documentos&lt;br&gt;&lt;/div&gt;" style="swimlane;fontStyle=0;childLayout=stackLayout;horizontal=1;startSize=26;fillColor=none;horizontalStack=0;resizeParent=1;resizeParentMax=0;resizeLast=0;collapsible=1;marginBottom=0;whiteSpace=wrap;html=1;" vertex="1" parent="1">
          <mxGeometry x="279.5" y="42" width="163" height="104" as="geometry">
            <mxRectangle x="57" y="33" width="114" height="26" as="alternateBounds" />
          </mxGeometry>
        </mxCell>
        <mxCell id="fUoOmMoi_l6fNtsF6b3P-60" value="usuario: OneToOneField" style="text;strokeColor=none;fillColor=none;align=left;verticalAlign=top;spacingLeft=4;spacingRight=4;overflow=hidden;rotatable=0;points=[[0,0.5],[1,0.5]];portConstraint=eastwest;whiteSpace=wrap;html=1;" vertex="1" parent="fUoOmMoi_l6fNtsF6b3P-59">
          <mxGeometry y="26" width="163" height="26" as="geometry" />
        </mxCell>
        <mxCell id="fUoOmMoi_l6fNtsF6b3P-66" value="cpf: IntegerField" style="text;strokeColor=none;fillColor=none;align=left;verticalAlign=top;spacingLeft=4;spacingRight=4;overflow=hidden;rotatable=0;points=[[0,0.5],[1,0.5]];portConstraint=eastwest;whiteSpace=wrap;html=1;" vertex="1" parent="fUoOmMoi_l6fNtsF6b3P-59">
          <mxGeometry y="52" width="163" height="26" as="geometry" />
        </mxCell>
        <mxCell id="fUoOmMoi_l6fNtsF6b3P-62" value="rg: IntegerField" style="text;strokeColor=none;fillColor=none;align=left;verticalAlign=top;spacingLeft=4;spacingRight=4;overflow=hidden;rotatable=0;points=[[0,0.5],[1,0.5]];portConstraint=eastwest;whiteSpace=wrap;html=1;" vertex="1" parent="fUoOmMoi_l6fNtsF6b3P-59">
          <mxGeometry y="78" width="163" height="26" as="geometry" />
        </mxCell>
        <mxCell id="fUoOmMoi_l6fNtsF6b3P-70" value="&lt;div&gt;Tabela Usuário&lt;/div&gt;" style="swimlane;fontStyle=0;childLayout=stackLayout;horizontal=1;startSize=26;fillColor=none;horizontalStack=0;resizeParent=1;resizeParentMax=0;resizeLast=0;collapsible=1;marginBottom=0;whiteSpace=wrap;html=1;" vertex="1" parent="1">
          <mxGeometry x="53" y="321" width="163" height="130" as="geometry">
            <mxRectangle x="57" y="33" width="114" height="26" as="alternateBounds" />
          </mxGeometry>
        </mxCell>
        <mxCell id="fUoOmMoi_l6fNtsF6b3P-71" value="nome: CharField" style="text;strokeColor=none;fillColor=none;align=left;verticalAlign=top;spacingLeft=4;spacingRight=4;overflow=hidden;rotatable=0;points=[[0,0.5],[1,0.5]];portConstraint=eastwest;whiteSpace=wrap;html=1;" vertex="1" parent="fUoOmMoi_l6fNtsF6b3P-70">
          <mxGeometry y="26" width="163" height="26" as="geometry" />
        </mxCell>
        <mxCell id="fUoOmMoi_l6fNtsF6b3P-74" value="email: EmailField" style="text;strokeColor=none;fillColor=none;align=left;verticalAlign=top;spacingLeft=4;spacingRight=4;overflow=hidden;rotatable=0;points=[[0,0.5],[1,0.5]];portConstraint=eastwest;whiteSpace=wrap;html=1;" vertex="1" parent="fUoOmMoi_l6fNtsF6b3P-70">
          <mxGeometry y="52" width="163" height="26" as="geometry" />
        </mxCell>
        <mxCell id="fUoOmMoi_l6fNtsF6b3P-76" value="senha: CharField" style="text;strokeColor=none;fillColor=none;align=left;verticalAlign=top;spacingLeft=4;spacingRight=4;overflow=hidden;rotatable=0;points=[[0,0.5],[1,0.5]];portConstraint=eastwest;whiteSpace=wrap;html=1;" vertex="1" parent="fUoOmMoi_l6fNtsF6b3P-70">
          <mxGeometry y="78" width="163" height="26" as="geometry" />
        </mxCell>
        <mxCell id="fUoOmMoi_l6fNtsF6b3P-77" value="foto_perfil: ImageField" style="text;strokeColor=none;fillColor=none;align=left;verticalAlign=top;spacingLeft=4;spacingRight=4;overflow=hidden;rotatable=0;points=[[0,0.5],[1,0.5]];portConstraint=eastwest;whiteSpace=wrap;html=1;" vertex="1" parent="fUoOmMoi_l6fNtsF6b3P-70">
          <mxGeometry y="104" width="163" height="26" as="geometry" />
        </mxCell>
        <mxCell id="fUoOmMoi_l6fNtsF6b3P-78" value="&lt;div&gt;Tabela Post&lt;/div&gt;" style="swimlane;fontStyle=0;childLayout=stackLayout;horizontal=1;startSize=26;fillColor=none;horizontalStack=0;resizeParent=1;resizeParentMax=0;resizeLast=0;collapsible=1;marginBottom=0;whiteSpace=wrap;html=1;" vertex="1" parent="1">
          <mxGeometry x="275.5" y="321" width="194.5" height="130" as="geometry">
            <mxRectangle x="57" y="33" width="114" height="26" as="alternateBounds" />
          </mxGeometry>
        </mxCell>
        <mxCell id="fUoOmMoi_l6fNtsF6b3P-82" value="usuario: ForeignKey" style="text;strokeColor=none;fillColor=none;align=left;verticalAlign=top;spacingLeft=4;spacingRight=4;overflow=hidden;rotatable=0;points=[[0,0.5],[1,0.5]];portConstraint=eastwest;whiteSpace=wrap;html=1;" vertex="1" parent="fUoOmMoi_l6fNtsF6b3P-78">
          <mxGeometry y="26" width="194.5" height="26" as="geometry" />
        </mxCell>
        <mxCell id="fUoOmMoi_l6fNtsF6b3P-79" value="tiulo: CharField" style="text;strokeColor=none;fillColor=none;align=left;verticalAlign=top;spacingLeft=4;spacingRight=4;overflow=hidden;rotatable=0;points=[[0,0.5],[1,0.5]];portConstraint=eastwest;whiteSpace=wrap;html=1;" vertex="1" parent="fUoOmMoi_l6fNtsF6b3P-78">
          <mxGeometry y="52" width="194.5" height="26" as="geometry" />
        </mxCell>
        <mxCell id="fUoOmMoi_l6fNtsF6b3P-80" value="conteudo: TextField" style="text;strokeColor=none;fillColor=none;align=left;verticalAlign=top;spacingLeft=4;spacingRight=4;overflow=hidden;rotatable=0;points=[[0,0.5],[1,0.5]];portConstraint=eastwest;whiteSpace=wrap;html=1;" vertex="1" parent="fUoOmMoi_l6fNtsF6b3P-78">
          <mxGeometry y="78" width="194.5" height="26" as="geometry" />
        </mxCell>
        <mxCell id="fUoOmMoi_l6fNtsF6b3P-81" value="data_postagem: DateTimeField" style="text;strokeColor=none;fillColor=none;align=left;verticalAlign=top;spacingLeft=4;spacingRight=4;overflow=hidden;rotatable=0;points=[[0,0.5],[1,0.5]];portConstraint=eastwest;whiteSpace=wrap;html=1;" vertex="1" parent="fUoOmMoi_l6fNtsF6b3P-78">
          <mxGeometry y="104" width="194.5" height="26" as="geometry" />
        </mxCell>
        <mxCell id="fUoOmMoi_l6fNtsF6b3P-85" value="&lt;div&gt;Tabela Livro&lt;/div&gt;" style="swimlane;fontStyle=0;childLayout=stackLayout;horizontal=1;startSize=26;fillColor=none;horizontalStack=0;resizeParent=1;resizeParentMax=0;resizeLast=0;collapsible=1;marginBottom=0;whiteSpace=wrap;html=1;" vertex="1" parent="1">
          <mxGeometry x="290" y="545" width="175" height="182" as="geometry">
            <mxRectangle x="57" y="33" width="114" height="26" as="alternateBounds" />
          </mxGeometry>
        </mxCell>
        <mxCell id="fUoOmMoi_l6fNtsF6b3P-86" value="titulo: CharField" style="text;strokeColor=none;fillColor=none;align=left;verticalAlign=top;spacingLeft=4;spacingRight=4;overflow=hidden;rotatable=0;points=[[0,0.5],[1,0.5]];portConstraint=eastwest;whiteSpace=wrap;html=1;" vertex="1" parent="fUoOmMoi_l6fNtsF6b3P-85">
          <mxGeometry y="26" width="175" height="26" as="geometry" />
        </mxCell>
        <mxCell id="fUoOmMoi_l6fNtsF6b3P-87" value="autor: ForeignKey" style="text;strokeColor=none;fillColor=none;align=left;verticalAlign=top;spacingLeft=4;spacingRight=4;overflow=hidden;rotatable=0;points=[[0,0.5],[1,0.5]];portConstraint=eastwest;whiteSpace=wrap;html=1;" vertex="1" parent="fUoOmMoi_l6fNtsF6b3P-85">
          <mxGeometry y="52" width="175" height="26" as="geometry" />
        </mxCell>
        <mxCell id="fUoOmMoi_l6fNtsF6b3P-88" value="categoria: ForeignKey" style="text;strokeColor=none;fillColor=none;align=left;verticalAlign=top;spacingLeft=4;spacingRight=4;overflow=hidden;rotatable=0;points=[[0,0.5],[1,0.5]];portConstraint=eastwest;whiteSpace=wrap;html=1;" vertex="1" parent="fUoOmMoi_l6fNtsF6b3P-85">
          <mxGeometry y="78" width="175" height="26" as="geometry" />
        </mxCell>
        <mxCell id="fUoOmMoi_l6fNtsF6b3P-103" value="sub_categoria: ForeignKey" style="text;strokeColor=none;fillColor=none;align=left;verticalAlign=top;spacingLeft=4;spacingRight=4;overflow=hidden;rotatable=0;points=[[0,0.5],[1,0.5]];portConstraint=eastwest;whiteSpace=wrap;html=1;" vertex="1" parent="fUoOmMoi_l6fNtsF6b3P-85">
          <mxGeometry y="104" width="175" height="26" as="geometry" />
        </mxCell>
        <mxCell id="fUoOmMoi_l6fNtsF6b3P-89" value="data_publicacao: DateField" style="text;strokeColor=none;fillColor=none;align=left;verticalAlign=top;spacingLeft=4;spacingRight=4;overflow=hidden;rotatable=0;points=[[0,0.5],[1,0.5]];portConstraint=eastwest;whiteSpace=wrap;html=1;" vertex="1" parent="fUoOmMoi_l6fNtsF6b3P-85">
          <mxGeometry y="130" width="175" height="26" as="geometry" />
        </mxCell>
        <mxCell id="fUoOmMoi_l6fNtsF6b3P-90" value="sinopse: TextField" style="text;strokeColor=none;fillColor=none;align=left;verticalAlign=top;spacingLeft=4;spacingRight=4;overflow=hidden;rotatable=0;points=[[0,0.5],[1,0.5]];portConstraint=eastwest;whiteSpace=wrap;html=1;" vertex="1" parent="fUoOmMoi_l6fNtsF6b3P-85">
          <mxGeometry y="156" width="175" height="26" as="geometry" />
        </mxCell>
        <mxCell id="fUoOmMoi_l6fNtsF6b3P-91" value="&lt;div&gt;Tabela Autor&lt;/div&gt;" style="swimlane;fontStyle=0;childLayout=stackLayout;horizontal=1;startSize=26;fillColor=none;horizontalStack=0;resizeParent=1;resizeParentMax=0;resizeLast=0;collapsible=1;marginBottom=0;whiteSpace=wrap;html=1;" vertex="1" parent="1">
          <mxGeometry x="57" y="545" width="175" height="156" as="geometry">
            <mxRectangle x="57" y="33" width="114" height="26" as="alternateBounds" />
          </mxGeometry>
        </mxCell>
        <mxCell id="fUoOmMoi_l6fNtsF6b3P-92" value="nome: CharField" style="text;strokeColor=none;fillColor=none;align=left;verticalAlign=top;spacingLeft=4;spacingRight=4;overflow=hidden;rotatable=0;points=[[0,0.5],[1,0.5]];portConstraint=eastwest;whiteSpace=wrap;html=1;" vertex="1" parent="fUoOmMoi_l6fNtsF6b3P-91">
          <mxGeometry y="26" width="175" height="26" as="geometry" />
        </mxCell>
        <mxCell id="fUoOmMoi_l6fNtsF6b3P-93" value="nacionalidade: CharField" style="text;strokeColor=none;fillColor=none;align=left;verticalAlign=top;spacingLeft=4;spacingRight=4;overflow=hidden;rotatable=0;points=[[0,0.5],[1,0.5]];portConstraint=eastwest;whiteSpace=wrap;html=1;" vertex="1" parent="fUoOmMoi_l6fNtsF6b3P-91">
          <mxGeometry y="52" width="175" height="26" as="geometry" />
        </mxCell>
        <mxCell id="fUoOmMoi_l6fNtsF6b3P-94" value="nascimento: DateField" style="text;strokeColor=none;fillColor=none;align=left;verticalAlign=top;spacingLeft=4;spacingRight=4;overflow=hidden;rotatable=0;points=[[0,0.5],[1,0.5]];portConstraint=eastwest;whiteSpace=wrap;html=1;" vertex="1" parent="fUoOmMoi_l6fNtsF6b3P-91">
          <mxGeometry y="78" width="175" height="26" as="geometry" />
        </mxCell>
        <mxCell id="fUoOmMoi_l6fNtsF6b3P-97" value="biografia: TextField" style="text;strokeColor=none;fillColor=none;align=left;verticalAlign=top;spacingLeft=4;spacingRight=4;overflow=hidden;rotatable=0;points=[[0,0.5],[1,0.5]];portConstraint=eastwest;whiteSpace=wrap;html=1;" vertex="1" parent="fUoOmMoi_l6fNtsF6b3P-91">
          <mxGeometry y="104" width="175" height="26" as="geometry" />
        </mxCell>
        <mxCell id="fUoOmMoi_l6fNtsF6b3P-98" value="foto: ImageField" style="text;strokeColor=none;fillColor=none;align=left;verticalAlign=top;spacingLeft=4;spacingRight=4;overflow=hidden;rotatable=0;points=[[0,0.5],[1,0.5]];portConstraint=eastwest;whiteSpace=wrap;html=1;" vertex="1" parent="fUoOmMoi_l6fNtsF6b3P-91">
          <mxGeometry y="130" width="175" height="26" as="geometry" />
        </mxCell>
        <mxCell id="fUoOmMoi_l6fNtsF6b3P-99" value="Tabela Categoria" style="swimlane;fontStyle=0;childLayout=stackLayout;horizontal=1;startSize=26;fillColor=none;horizontalStack=0;resizeParent=1;resizeParentMax=0;resizeLast=0;collapsible=1;marginBottom=0;whiteSpace=wrap;html=1;" vertex="1" parent="1">
          <mxGeometry x="537" y="582" width="154" height="52" as="geometry" />
        </mxCell>
        <mxCell id="fUoOmMoi_l6fNtsF6b3P-100" value="nome: CharField" style="text;strokeColor=none;fillColor=none;align=left;verticalAlign=top;spacingLeft=4;spacingRight=4;overflow=hidden;rotatable=0;points=[[0,0.5],[1,0.5]];portConstraint=eastwest;whiteSpace=wrap;html=1;" vertex="1" parent="fUoOmMoi_l6fNtsF6b3P-99">
          <mxGeometry y="26" width="154" height="26" as="geometry" />
        </mxCell>
        <mxCell id="fUoOmMoi_l6fNtsF6b3P-101" value="Tabela SubCategoria" style="swimlane;fontStyle=0;childLayout=stackLayout;horizontal=1;startSize=26;fillColor=none;horizontalStack=0;resizeParent=1;resizeParentMax=0;resizeLast=0;collapsible=1;marginBottom=0;whiteSpace=wrap;html=1;" vertex="1" parent="1">
          <mxGeometry x="537" y="666" width="154" height="52" as="geometry" />
        </mxCell>
        <mxCell id="fUoOmMoi_l6fNtsF6b3P-102" value="nome: CharField" style="text;strokeColor=none;fillColor=none;align=left;verticalAlign=top;spacingLeft=4;spacingRight=4;overflow=hidden;rotatable=0;points=[[0,0.5],[1,0.5]];portConstraint=eastwest;whiteSpace=wrap;html=1;" vertex="1" parent="fUoOmMoi_l6fNtsF6b3P-101">
          <mxGeometry y="26" width="154" height="26" as="geometry" />
        </mxCell>
        <mxCell id="fUoOmMoi_l6fNtsF6b3P-129" value="&lt;div&gt;Tabela Música&lt;/div&gt;" style="swimlane;fontStyle=0;childLayout=stackLayout;horizontal=1;startSize=26;fillColor=none;horizontalStack=0;resizeParent=1;resizeParentMax=0;resizeLast=0;collapsible=1;marginBottom=0;whiteSpace=wrap;html=1;" vertex="1" parent="1">
          <mxGeometry x="345" y="834" width="175" height="130" as="geometry">
            <mxRectangle x="57" y="33" width="114" height="26" as="alternateBounds" />
          </mxGeometry>
        </mxCell>
        <mxCell id="fUoOmMoi_l6fNtsF6b3P-130" value="titulo: CharField" style="text;strokeColor=none;fillColor=none;align=left;verticalAlign=top;spacingLeft=4;spacingRight=4;overflow=hidden;rotatable=0;points=[[0,0.5],[1,0.5]];portConstraint=eastwest;whiteSpace=wrap;html=1;" vertex="1" parent="fUoOmMoi_l6fNtsF6b3P-129">
          <mxGeometry y="26" width="175" height="26" as="geometry" />
        </mxCell>
        <mxCell id="fUoOmMoi_l6fNtsF6b3P-131" value="artista: ForeignKey" style="text;strokeColor=none;fillColor=none;align=left;verticalAlign=top;spacingLeft=4;spacingRight=4;overflow=hidden;rotatable=0;points=[[0,0.5],[1,0.5]];portConstraint=eastwest;whiteSpace=wrap;html=1;" vertex="1" parent="fUoOmMoi_l6fNtsF6b3P-129">
          <mxGeometry y="52" width="175" height="26" as="geometry" />
        </mxCell>
        <mxCell id="fUoOmMoi_l6fNtsF6b3P-132" value="genero: ForeignKey" style="text;strokeColor=none;fillColor=none;align=left;verticalAlign=top;spacingLeft=4;spacingRight=4;overflow=hidden;rotatable=0;points=[[0,0.5],[1,0.5]];portConstraint=eastwest;whiteSpace=wrap;html=1;" vertex="1" parent="fUoOmMoi_l6fNtsF6b3P-129">
          <mxGeometry y="78" width="175" height="26" as="geometry" />
        </mxCell>
        <mxCell id="fUoOmMoi_l6fNtsF6b3P-133" value="sub_genero: ForeignKey" style="text;strokeColor=none;fillColor=none;align=left;verticalAlign=top;spacingLeft=4;spacingRight=4;overflow=hidden;rotatable=0;points=[[0,0.5],[1,0.5]];portConstraint=eastwest;whiteSpace=wrap;html=1;" vertex="1" parent="fUoOmMoi_l6fNtsF6b3P-129">
          <mxGeometry y="104" width="175" height="26" as="geometry" />
        </mxCell>
        <mxCell id="fUoOmMoi_l6fNtsF6b3P-136" value="&lt;div&gt;Tabela Playlist&lt;br&gt;&lt;/div&gt;" style="swimlane;fontStyle=0;childLayout=stackLayout;horizontal=1;startSize=26;fillColor=none;horizontalStack=0;resizeParent=1;resizeParentMax=0;resizeLast=0;collapsible=1;marginBottom=0;whiteSpace=wrap;html=1;" vertex="1" parent="1">
          <mxGeometry x="345" y="1002" width="175" height="52" as="geometry">
            <mxRectangle x="57" y="33" width="114" height="26" as="alternateBounds" />
          </mxGeometry>
        </mxCell>
        <mxCell id="fUoOmMoi_l6fNtsF6b3P-137" value="musica: ManyToMany" style="text;strokeColor=none;fillColor=none;align=left;verticalAlign=top;spacingLeft=4;spacingRight=4;overflow=hidden;rotatable=0;points=[[0,0.5],[1,0.5]];portConstraint=eastwest;whiteSpace=wrap;html=1;" vertex="1" parent="fUoOmMoi_l6fNtsF6b3P-136">
          <mxGeometry y="26" width="175" height="26" as="geometry" />
        </mxCell>
        <mxCell id="fUoOmMoi_l6fNtsF6b3P-141" value="&lt;div&gt;Tabela Artista&lt;/div&gt;" style="swimlane;fontStyle=0;childLayout=stackLayout;horizontal=1;startSize=26;fillColor=none;horizontalStack=0;resizeParent=1;resizeParentMax=0;resizeLast=0;collapsible=1;marginBottom=0;whiteSpace=wrap;html=1;" vertex="1" parent="1">
          <mxGeometry x="60" y="872" width="175" height="156" as="geometry">
            <mxRectangle x="57" y="33" width="114" height="26" as="alternateBounds" />
          </mxGeometry>
        </mxCell>
        <mxCell id="fUoOmMoi_l6fNtsF6b3P-142" value="nome: CharField" style="text;strokeColor=none;fillColor=none;align=left;verticalAlign=top;spacingLeft=4;spacingRight=4;overflow=hidden;rotatable=0;points=[[0,0.5],[1,0.5]];portConstraint=eastwest;whiteSpace=wrap;html=1;" vertex="1" parent="fUoOmMoi_l6fNtsF6b3P-141">
          <mxGeometry y="26" width="175" height="26" as="geometry" />
        </mxCell>
        <mxCell id="fUoOmMoi_l6fNtsF6b3P-146" value="foto: ImageField" style="text;strokeColor=none;fillColor=none;align=left;verticalAlign=top;spacingLeft=4;spacingRight=4;overflow=hidden;rotatable=0;points=[[0,0.5],[1,0.5]];portConstraint=eastwest;whiteSpace=wrap;html=1;" vertex="1" parent="fUoOmMoi_l6fNtsF6b3P-141">
          <mxGeometry y="52" width="175" height="26" as="geometry" />
        </mxCell>
        <mxCell id="fUoOmMoi_l6fNtsF6b3P-143" value="nacionalidade: CharField" style="text;strokeColor=none;fillColor=none;align=left;verticalAlign=top;spacingLeft=4;spacingRight=4;overflow=hidden;rotatable=0;points=[[0,0.5],[1,0.5]];portConstraint=eastwest;whiteSpace=wrap;html=1;" vertex="1" parent="fUoOmMoi_l6fNtsF6b3P-141">
          <mxGeometry y="78" width="175" height="26" as="geometry" />
        </mxCell>
        <mxCell id="fUoOmMoi_l6fNtsF6b3P-144" value="nascimento: DateField" style="text;strokeColor=none;fillColor=none;align=left;verticalAlign=top;spacingLeft=4;spacingRight=4;overflow=hidden;rotatable=0;points=[[0,0.5],[1,0.5]];portConstraint=eastwest;whiteSpace=wrap;html=1;" vertex="1" parent="fUoOmMoi_l6fNtsF6b3P-141">
          <mxGeometry y="104" width="175" height="26" as="geometry" />
        </mxCell>
        <mxCell id="fUoOmMoi_l6fNtsF6b3P-145" value="biografia: TextField" style="text;strokeColor=none;fillColor=none;align=left;verticalAlign=top;spacingLeft=4;spacingRight=4;overflow=hidden;rotatable=0;points=[[0,0.5],[1,0.5]];portConstraint=eastwest;whiteSpace=wrap;html=1;" vertex="1" parent="fUoOmMoi_l6fNtsF6b3P-141">
          <mxGeometry y="130" width="175" height="26" as="geometry" />
        </mxCell>
        <mxCell id="fUoOmMoi_l6fNtsF6b3P-161" style="edgeStyle=orthogonalEdgeStyle;rounded=0;orthogonalLoop=1;jettySize=auto;html=1;exitX=1;exitY=0.5;exitDx=0;exitDy=0;entryX=0;entryY=0.25;entryDx=0;entryDy=0;" edge="1" parent="1" source="RxDvv0h4Y8CY9LYR0GJb-27" target="RxDvv0h4Y8CY9LYR0GJb-24">
          <mxGeometry relative="1" as="geometry" />
        </mxCell>
        <mxCell id="fUoOmMoi_l6fNtsF6b3P-163" style="edgeStyle=orthogonalEdgeStyle;rounded=0;orthogonalLoop=1;jettySize=auto;html=1;exitX=0;exitY=0.5;exitDx=0;exitDy=0;entryX=1.006;entryY=0.068;entryDx=0;entryDy=0;entryPerimeter=0;" edge="1" parent="1" source="fUoOmMoi_l6fNtsF6b3P-12" target="RxDvv0h4Y8CY9LYR0GJb-14">
          <mxGeometry relative="1" as="geometry">
            <Array as="points">
              <mxPoint x="261" y="-1002" />
              <mxPoint x="261" y="-861" />
            </Array>
          </mxGeometry>
        </mxCell>
        <mxCell id="fUoOmMoi_l6fNtsF6b3P-166" style="edgeStyle=orthogonalEdgeStyle;rounded=0;orthogonalLoop=1;jettySize=auto;html=1;exitX=0;exitY=0.5;exitDx=0;exitDy=0;entryX=1.012;entryY=0.04;entryDx=0;entryDy=0;entryPerimeter=0;" edge="1" parent="1" source="fUoOmMoi_l6fNtsF6b3P-28" target="RxDvv0h4Y8CY9LYR0GJb-1">
          <mxGeometry relative="1" as="geometry">
            <Array as="points">
              <mxPoint x="477" y="-1038" />
              <mxPoint x="477" y="-1086" />
            </Array>
          </mxGeometry>
        </mxCell>
        <mxCell id="fUoOmMoi_l6fNtsF6b3P-167" style="edgeStyle=orthogonalEdgeStyle;rounded=0;orthogonalLoop=1;jettySize=auto;html=1;exitX=0;exitY=0.5;exitDx=0;exitDy=0;entryX=1.007;entryY=0.04;entryDx=0;entryDy=0;entryPerimeter=0;" edge="1" parent="1" source="fUoOmMoi_l6fNtsF6b3P-11" target="RxDvv0h4Y8CY9LYR0GJb-1">
          <mxGeometry relative="1" as="geometry" />
        </mxCell>
        <mxCell id="fUoOmMoi_l6fNtsF6b3P-169" style="edgeStyle=orthogonalEdgeStyle;rounded=0;orthogonalLoop=1;jettySize=auto;html=1;exitX=1;exitY=0.5;exitDx=0;exitDy=0;entryX=0;entryY=0.25;entryDx=0;entryDy=0;" edge="1" parent="1" source="RxDvv0h4Y8CY9LYR0GJb-19" target="RxDvv0h4Y8CY9LYR0GJb-20">
          <mxGeometry relative="1" as="geometry" />
        </mxCell>
        <mxCell id="fUoOmMoi_l6fNtsF6b3P-171" style="edgeStyle=orthogonalEdgeStyle;rounded=0;orthogonalLoop=1;jettySize=auto;html=1;exitX=1;exitY=0.5;exitDx=0;exitDy=0;entryX=0;entryY=0.25;entryDx=0;entryDy=0;" edge="1" parent="1" source="fUoOmMoi_l6fNtsF6b3P-88" target="fUoOmMoi_l6fNtsF6b3P-99">
          <mxGeometry relative="1" as="geometry" />
        </mxCell>
        <mxCell id="fUoOmMoi_l6fNtsF6b3P-172" style="edgeStyle=orthogonalEdgeStyle;rounded=0;orthogonalLoop=1;jettySize=auto;html=1;exitX=1;exitY=0.5;exitDx=0;exitDy=0;entryX=0;entryY=0.25;entryDx=0;entryDy=0;" edge="1" parent="1" source="fUoOmMoi_l6fNtsF6b3P-103" target="fUoOmMoi_l6fNtsF6b3P-101">
          <mxGeometry relative="1" as="geometry" />
        </mxCell>
        <mxCell id="fUoOmMoi_l6fNtsF6b3P-173" style="edgeStyle=orthogonalEdgeStyle;rounded=0;orthogonalLoop=1;jettySize=auto;html=1;exitX=0;exitY=0.5;exitDx=0;exitDy=0;entryX=1.01;entryY=0.09;entryDx=0;entryDy=0;entryPerimeter=0;" edge="1" parent="1" source="fUoOmMoi_l6fNtsF6b3P-131" target="fUoOmMoi_l6fNtsF6b3P-141">
          <mxGeometry relative="1" as="geometry" />
        </mxCell>
        <mxCell id="fUoOmMoi_l6fNtsF6b3P-174" style="edgeStyle=orthogonalEdgeStyle;rounded=0;orthogonalLoop=1;jettySize=auto;html=1;exitX=1;exitY=0.25;exitDx=0;exitDy=0;entryX=1.005;entryY=0.099;entryDx=0;entryDy=0;entryPerimeter=0;" edge="1" parent="1" source="fUoOmMoi_l6fNtsF6b3P-136" target="fUoOmMoi_l6fNtsF6b3P-129">
          <mxGeometry relative="1" as="geometry" />
        </mxCell>
        <mxCell id="fUoOmMoi_l6fNtsF6b3P-175" style="edgeStyle=orthogonalEdgeStyle;rounded=0;orthogonalLoop=1;jettySize=auto;html=1;exitX=0;exitY=0.5;exitDx=0;exitDy=0;entryX=0.989;entryY=0.081;entryDx=0;entryDy=0;entryPerimeter=0;" edge="1" parent="1" source="fUoOmMoi_l6fNtsF6b3P-87" target="fUoOmMoi_l6fNtsF6b3P-91">
          <mxGeometry relative="1" as="geometry" />
        </mxCell>
        <mxCell id="fUoOmMoi_l6fNtsF6b3P-178" style="edgeStyle=orthogonalEdgeStyle;rounded=0;orthogonalLoop=1;jettySize=auto;html=1;exitX=0;exitY=0.5;exitDx=0;exitDy=0;entryX=1.009;entryY=0.109;entryDx=0;entryDy=0;entryPerimeter=0;" edge="1" parent="1" source="fUoOmMoi_l6fNtsF6b3P-82" target="fUoOmMoi_l6fNtsF6b3P-70">
          <mxGeometry relative="1" as="geometry" />
        </mxCell>
        <mxCell id="fUoOmMoi_l6fNtsF6b3P-179" style="edgeStyle=orthogonalEdgeStyle;rounded=0;orthogonalLoop=1;jettySize=auto;html=1;exitX=0;exitY=0.5;exitDx=0;exitDy=0;entryX=1;entryY=0.063;entryDx=0;entryDy=0;entryPerimeter=0;" edge="1" parent="1" source="fUoOmMoi_l6fNtsF6b3P-60" target="fUoOmMoi_l6fNtsF6b3P-51">
          <mxGeometry relative="1" as="geometry" />
        </mxCell>
      </root>
    </mxGraphModel>
  </diagram>
</mxfile>
